<?xml version="1.0" encoding="utf-8"?>
<!-- Generator: Adobe Illustrator 22.1.0, SVG Export Plug-In . SVG Version: 6.00 Build 0)  -->
<svg version="1.1" xmlns="http://www.w3.org/2000/svg" xmlns:xlink="http://www.w3.org/1999/xlink" x="0px" y="0px"
	 viewBox="0 0 54 30" style="enable-background:new 0 0 54 30;" xml:space="preserve">
<style type="text/css">
	.st0{fill:#FA6B4D;}
	.st1{display:none;fill:#FA6B4D;}
	.st2{font-family:'AdobeSongStd-Light-GBpc-EUC-H';}
	.st3{font-size:24px;}
	.st4{fill:#D81E06;}
</style>
<g id="图层_3">
	<g id="图层_2_1_">
		<g>
			<g>
				<path class="st0" d="M49.1,30H4.9C2.2,30,0,27.5,0,24.4V5.6C0,2.5,2.2,0,4.9,0h44.1C51.8,0,54,2.5,54,5.6v18.9
					C54,27.5,51.8,30,49.1,30z M4.9,1.1c-2.2,0-4.1,2-4.1,4.6v18.9c0,2.5,1.8,4.6,4.1,4.6h44.1c2.2,0,4.1-2,4.1-4.6V5.7
					c0-2.5-1.8-4.6-4.1-4.6C49.1,1.1,4.9,1.1,4.9,1.1z"/>
			</g>
		</g>
	</g>
</g>
<g id="图层_2">
	<text transform="matrix(1 0 0 1 11.0836 22.417)" class="st1 st2 st3">SQ</text>
	<path class="st4" d="M20.3,13c0,0-0.1,0-0.1,0h-6.1c-1.3,0-2.4-1.1-2.4-2.4c0-1.3,1.1-2.4,2.4-2.4c0,0,0.1,0,0.1,0c0,0,0.1,0,0.1,0
		h9.1c0.8,0,1.5-0.7,1.5-1.5c0-0.8-0.7-1.5-1.5-1.5h-9.1c0,0-0.1,0-0.1,0c0,0-0.1,0-0.1,0c-2.9,0-5.3,2.4-5.3,5.3
		c0,2.7,2.1,4.9,4.7,5.2c0.1,0,0.2,0.1,0.3,0.1h6.3c1.3,0,2.4,1.1,2.4,2.4c0,1.3-1.1,2.4-2.4,2.4h-9.9c-0.8,0-1.5,0.7-1.5,1.5
		c0,0.8,0.7,1.5,1.5,1.5h10.2c0.1,0,0.2,0,0.3-0.1c2.7-0.3,4.8-2.5,4.8-5.2C25.5,15.5,23.2,13.1,20.3,13L20.3,13z M20.3,13"/>
	<path class="st4" d="M44.8,21.7c0.5-0.7,0.8-1.5,0.8-2.4V9.6c0-2.4-2-4.3-4.5-4.3h-8.8c-2.5,0-4.5,1.9-4.5,4.3v9.6
		c0,2.4,2,4.3,4.5,4.3h8.8c0.4,0,0.8-0.1,1.2-0.2l0.9,0.9c0.3,0.3,0.7,0.4,1,0.4c0.4,0,0.8-0.1,1.1-0.4c0.6-0.6,0.6-1.5,0-2.1
		L44.8,21.7z M42.6,19.2c0,0.1,0,0.2-0.1,0.3l-1.6-1.6c-0.6-0.6-1.5-0.6-2.1,0c-0.6,0.6-0.6,1.5,0,2.1l0.6,0.6h-7.2
		c-0.8,0-1.5-0.6-1.5-1.4V9.6c0-0.8,0.7-1.4,1.5-1.4h8.8c0.8,0,1.5,0.6,1.5,1.4V19.2z M42.6,19.2"/>
</g>
</svg>
